<svg id="icon_comments_uploaded-fixed" xmlns="http://www.w3.org/2000/svg" width="38" height="35" viewBox="0 0 38 35">
  <rect id="_38x35" data-name="38x35" width="38" height="35" fill="rgba(255,255,255,0)"/>
  <path id="balloon" d="M28,20a10.072,10.072,0,0,1-1.583-.137c-.815,3.86-5.17,6.822-10.416,6.822a13.209,13.209,0,0,1-3.981-.614l-1.154-.366-.99.7a10.92,10.92,0,0,1-2.92,1.472,12.689,12.689,0,0,0,1.01-2.04L8.5,24.41,7.466,23.3a6.98,6.98,0,0,1-2.021-4.742c0-4.478,4.737-8.124,10.561-8.124a13.546,13.546,0,0,1,2.024.154c-.012-.2-.03-.39-.03-.588a9.956,9.956,0,0,1,.177-1.84A15.85,15.85,0,0,0,16,8C8.821,8,3,12.727,3,18.561a9.332,9.332,0,0,0,2.686,6.413,12.888,12.888,0,0,1-2.354,3.717,1.219,1.219,0,0,0,.889,2.056A12.319,12.319,0,0,0,11.284,28.4,15.692,15.692,0,0,0,16,29.126c6.6,0,12.035-4,12.875-9.17C28.586,19.981,28.3,20,28,20Z" fill="#33a3dc"/>
  <circle id="circle" cx="8" cy="8" r="8" transform="translate(20 2)" fill="#4aac43"/>
  <path id="Path_7238" data-name="Path 7238" d="M27.075,14.236,33.01,8.3a.515.515,0,0,0,0-.73h0l-.73-.73a.515.515,0,0,0-.73,0h0l-4.84,4.841-2.26-2.26a.515.515,0,0,0-.73,0h0l-.73.73a.515.515,0,0,0,0,.73h0l3.355,3.355a.515.515,0,0,0,.73,0Z" fill="#fff"/>
</svg>
