<svg xmlns="http://www.w3.org/2000/svg" width="19.861" height="20.747" viewBox="0 0 19.861 20.747">
  <g id="icon_-_settings" data-name="icon - settings" transform="translate(-326.5 -9)">
    <path id="cog" d="M38.251,20.965l-1.782-1.029a8.057,8.057,0,0,0,0-2.936l1.782-1.029a.506.506,0,0,0,.23-.586,10.418,10.418,0,0,0-2.288-3.957.5.5,0,0,0-.619-.1l-1.782,1.029a7.894,7.894,0,0,0-2.543-1.468V8.839a.5.5,0,0,0-.393-.489,10.515,10.515,0,0,0-4.568,0,.5.5,0,0,0-.393.489V10.9a8.143,8.143,0,0,0-2.543,1.468l-1.778-1.029a.5.5,0,0,0-.619.1,10.355,10.355,0,0,0-2.288,3.957.5.5,0,0,0,.23.586L20.679,17a8.057,8.057,0,0,0,0,2.936L18.9,20.969a.506.506,0,0,0-.23.586,10.418,10.418,0,0,0,2.288,3.957.5.5,0,0,0,.619.1l1.782-1.029A7.894,7.894,0,0,0,25.9,26.047v2.058a.5.5,0,0,0,.393.489,10.515,10.515,0,0,0,4.568,0,.5.5,0,0,0,.393-.489V26.047A8.143,8.143,0,0,0,33.8,24.579l1.782,1.029a.5.5,0,0,0,.619-.1,10.355,10.355,0,0,0,2.288-3.957A.517.517,0,0,0,38.251,20.965Zm-9.679.849a3.346,3.346,0,1,1,3.346-3.346A3.351,3.351,0,0,1,28.572,21.814Z" transform="translate(307.856 0.901)" fill="#999"/>
  </g>
</svg>
