<svg id="icon_photo_uploaded" xmlns="http://www.w3.org/2000/svg" width="38" height="35" viewBox="0 0 38 35">
  <path id="_38x35" data-name="38x35" d="M0,0H38V35H0Z" fill="none"/>
  <path id="camera_body" d="M28,20c-.338,0-.671-.018-1-.05v8.383H5.667v-16h5.4l2.44-2.667h4.51A9.984,9.984,0,0,1,18.459,7H12.333L9.893,9.667H5.667A2.674,2.674,0,0,0,3,12.333v16A2.675,2.675,0,0,0,5.667,31H27a2.675,2.675,0,0,0,2.667-2.667V19.85A10.062,10.062,0,0,1,28,20Z" fill="#33a3dc"/>
  <path id="lens" d="M18.931,14.193a6.646,6.646,0,0,0-2.6-.526h0a6.685,6.685,0,1,0,6.4,4.825A10.023,10.023,0,0,1,18.931,14.193Zm-2.6,10.14a4,4,0,1,1,4-4A4,4,0,0,1,16.333,24.333Z" fill="#33a3dc"/>
  <circle id="circle" cx="8" cy="8" r="8" transform="translate(20 2)" fill="#4aac43"/>
  <path id="check" d="M27.075,14.236,33.01,8.3a.515.515,0,0,0,0-.73h0l-.73-.73a.515.515,0,0,0-.73,0h0l-4.84,4.841-2.26-2.26a.515.515,0,0,0-.73,0h0l-.73.73a.515.515,0,0,0,0,.73h0l3.355,3.355a.515.515,0,0,0,.73,0Z" fill="#fff"/>
</svg>
