<svg xmlns="http://www.w3.org/2000/svg" width="38" height="35" viewBox="0 0 38 35">
  <g id="ICON_comment_round_" data-name="ICON_comment (round)" transform="translate(-674 -564)">
    <rect id="_38x35" data-name="38x35" width="38" height="35" transform="translate(674 564)" fill="#fff" opacity="0"/>
    <path id="comment_outline" d="M12.935,32c-7.18,0-13,4.727-13,10.561a9.334,9.334,0,0,0,2.686,6.413A12.885,12.885,0,0,1,.267,52.691a1.219,1.219,0,0,0,.889,2.056A12.32,12.32,0,0,0,8.218,52.4a15.682,15.682,0,0,0,4.717.726c7.18,0,13-4.727,13-10.561S20.115,32,12.935,32Zm0,18.685a13.194,13.194,0,0,1-3.981-.614L7.8,49.705l-.99.7a10.919,10.919,0,0,1-2.92,1.472A12.736,12.736,0,0,0,4.9,49.837l.538-1.427L4.4,47.3a6.984,6.984,0,0,1-2.021-4.742c0-4.478,4.737-8.124,10.561-8.124S23.5,38.083,23.5,42.561,18.759,50.685,12.935,50.685Z" transform="translate(677.066 540)" fill="#33a3dc"/>
  </g>
</svg>
