<svg xmlns="http://www.w3.org/2000/svg" width="21.85" height="19.777" viewBox="0 0 21.85 19.777">
  <g id="icon_-_sign" data-name="icon - sign" transform="translate(-388.192 -2276.173)">
    <path id="wiggle" d="M2.428-4.866A.788.788,0,0,0,3-4.619a.788.788,0,0,0,.575-.247L5.468-6.757q1.977-1.977,3.62-3.6T12.042-13.2a27.219,27.219,0,0,1,2.31-1.939,5.9,5.9,0,0,1,1.692-.935,1.027,1.027,0,0,1,1.09.193.916.916,0,0,1,.14.988,6.134,6.134,0,0,1-.816,1.536q-.612.892-1.515,1.982T13-9.045q-.881,1.031-1.735,2.063T9.727-4.958A10.58,10.58,0,0,0,8.664-3.045a3.786,3.786,0,0,0-.322,1.729A2.274,2.274,0,0,0,9.056.15a2.168,2.168,0,0,0,1.262.661,3.075,3.075,0,0,0,1.477-.2,7.86,7.86,0,0,0,1.627-.854,17.581,17.581,0,0,0,1.713-1.316q.87-.752,1.719-1.579.816-.784,1.52-1.45t1.278-1.123a4.3,4.3,0,0,1,.983-.623.55.55,0,0,1,.623.038q.365.365-.021,1.08t-1,1.767q-.387.666-.773,1.348a8.945,8.945,0,0,0-.623,1.327,2.986,2.986,0,0,0-.2,1.225,1.592,1.592,0,0,0,.5,1.042,1.69,1.69,0,0,0,1.9.306,7.587,7.587,0,0,0,2.68-1.96A.929.929,0,0,0,24.041-.8a.763.763,0,0,0-.236-.585.806.806,0,0,0-.575-.236.788.788,0,0,0-.575.247q-.784.72-1.284,1.112a3.372,3.372,0,0,1-.784.5Q20.3.344,20.174.215a.426.426,0,0,1-.059-.451,4.453,4.453,0,0,1,.43-.87q.338-.569.908-1.515A18.194,18.194,0,0,0,22.575-4.7a3.7,3.7,0,0,0,.376-1.547A1.642,1.642,0,0,0,22.44-7.4a1.717,1.717,0,0,0-1.6-.526,5.6,5.6,0,0,0-2.191,1.085,30.181,30.181,0,0,0-2.954,2.535Q14.029-2.739,12.944-1.9A6.051,6.051,0,0,1,11.2-.854a.939.939,0,0,1-1-.145,1.123,1.123,0,0,1-.172-1.23,8.505,8.505,0,0,1,1.284-2.218q1.026-1.4,2.9-3.545Q15.78-9.8,16.854-11.2a16.115,16.115,0,0,0,1.611-2.471,3.9,3.9,0,0,0,.5-1.885,2.184,2.184,0,0,0-.693-1.472,2.587,2.587,0,0,0-1.386-.773,2.975,2.975,0,0,0-1.756.354,13.122,13.122,0,0,0-2.46,1.654Q11.226-14.62,9.185-12.67T4.329-7.906l-1.9,1.891a.806.806,0,0,0-.236.575A.806.806,0,0,0,2.428-4.866Z" transform="translate(386.001 2294)" fill="#666"/>
  </g>
</svg>
