<svg xmlns="http://www.w3.org/2000/svg" width="42" height="42" viewBox="0 0 42 42">
  <g id="Icon_-_submit" data-name="Icon - submit" transform="translate(-230.5 -8)">
    <path id="sync" d="M24.1.687l.219,4.526A13.553,13.553,0,0,0,.672,11.475a.656.656,0,0,0,.645.775H4a.656.656,0,0,0,.638-.506A9.62,9.62,0,0,1,21.974,8.63l-5.549-.266a.656.656,0,0,0-.687.656v2.593a.656.656,0,0,0,.656.656h10.95A.656.656,0,0,0,28,11.613V.656A.656.656,0,0,0,27.344,0H24.753A.656.656,0,0,0,24.1.687ZM13.991,23.625A9.6,9.6,0,0,1,6.006,19.37l5.567.266a.656.656,0,0,0,.687-.656V16.388a.656.656,0,0,0-.656-.656H.656A.656.656,0,0,0,0,16.388V27.344A.656.656,0,0,0,.656,28H3.246a.656.656,0,0,0,.656-.689L3.675,22.8a13.551,13.551,0,0,0,23.635-6.27.656.656,0,0,0-.645-.775H23.982a.656.656,0,0,0-.638.506,9.617,9.617,0,0,1-9.353,7.369Z" transform="translate(237.5 15)" fill="#4aac43"/>
    <path id="outer_frame_invisible_" data-name="outer frame (invisible)" d="M0,0H42V42H0Z" transform="translate(230.5 8)" fill="none"/>
  </g>
</svg>
