<svg xmlns="http://www.w3.org/2000/svg" width="20" height="20" viewBox="0 0 20 20">
  <g id="Icon_-_submit" data-name="Icon - submit" transform="translate(-230.5 -8)">
    <path id="sync" d="M17.213.491l.156,3.233A9.681,9.681,0,0,0,.48,8.2a.469.469,0,0,0,.461.554H2.857a.469.469,0,0,0,.456-.362A6.871,6.871,0,0,1,15.7,6.164l-3.963-.19a.469.469,0,0,0-.491.469V8.295a.469.469,0,0,0,.469.469h7.821A.469.469,0,0,0,20,8.295V.469A.469.469,0,0,0,19.531,0h-1.85a.469.469,0,0,0-.468.491ZM9.993,16.875a6.86,6.86,0,0,1-5.7-3.039l3.977.19a.469.469,0,0,0,.491-.469V11.706a.469.469,0,0,0-.469-.469H.469A.469.469,0,0,0,0,11.706v7.825A.469.469,0,0,0,.469,20h1.85a.469.469,0,0,0,.469-.492l-.162-3.225A9.68,9.68,0,0,0,19.507,11.8a.469.469,0,0,0-.461-.554H17.13a.469.469,0,0,0-.456.362,6.87,6.87,0,0,1-6.681,5.263Z" transform="translate(230.5 8)" fill="#33a3dc"/>
  </g>
</svg>
