<svg xmlns="http://www.w3.org/2000/svg" width="21" height="14" viewBox="0 0 21 14">
  <g id="Icon_-_tasks" data-name="Icon - tasks" transform="translate(-132.5 -11)">
    <path id="folder-open" d="M20.879,72.316l-2.64,4.526A2.333,2.333,0,0,1,16.224,78H1.642a.875.875,0,0,1-.756-1.316l2.64-4.526A2.333,2.333,0,0,1,5.542,71H20.124A.875.875,0,0,1,20.879,72.316ZM5.542,69.833H17.5v-1.75a1.75,1.75,0,0,0-1.75-1.75H9.917L7.583,64H1.75A1.75,1.75,0,0,0,0,65.75V75.887L2.518,71.57A3.512,3.512,0,0,1,5.542,69.833Z" transform="translate(132.5 -53)" fill="#999"/>
  </g>
</svg>
